<?xml version="1.0" encoding="UTF-8" standalone="no"?>
<!DOCTYPE svg PUBLIC "-//W3C//DTD SVG 1.1//EN" "http://www.w3.org/Graphics/SVG/1.1/DTD/svg11.dtd">
<svg width="100%" height="100%" viewBox="0 0 1254 608" version="1.1" xmlns="http://www.w3.org/2000/svg" xmlns:xlink="http://www.w3.org/1999/xlink" xml:space="preserve" xmlns:serif="http://www.serif.com/" style="fill-rule:evenodd;clip-rule:evenodd;stroke-linejoin:round;stroke-miterlimit:2;">
    <g transform="matrix(1,0,0,1,0,-331.236676)">
        <g transform="matrix(1.75774,0,0,1.702696,-280.628669,-235.365226)">
            <path d="M159.942,563.528C161.499,548.186 192.236,334.824 193.676,333.804C194.897,332.939 273.383,333.48 273.502,333.49C277.401,333.801 252.955,479.251 246.378,531.485C240,582.137 273.474,606.269 308.501,607.364C383.593,609.711 393.641,605.191 400.353,602.172C450.711,579.523 452.338,523.591 454.099,512.427C461.833,463.392 478.625,333.839 481.467,333.316C484.927,332.679 554.199,333.179 560.523,333.225C564.645,333.255 561.913,336.005 555.421,384.49C549.631,427.737 549.664,427.705 549.144,431.461C544.819,462.741 561.142,379.239 663.639,341.898C678.679,336.419 693.532,331.008 863.546,333.313C867.132,333.361 859.86,340.726 858.961,341.877C811.988,401.99 812.202,401.981 808.097,407.177C800.738,416.489 798.35,413.484 714.501,413.833C610.29,414.266 590.384,514.293 600.839,552.41C620.243,623.154 690.604,614.187 694.498,614.182C771.564,614.097 773.684,615.207 774.222,611.452C779.352,575.616 780.973,566.973 780.944,565.454C780.863,561.172 693.495,565.304 691.996,563.16C691.084,561.856 740.383,501.384 740.876,500.984C746.499,496.413 747.296,496.733 858.5,496.808C868.705,496.815 874.378,493.384 872.812,503.555C871.338,513.125 848.76,670.048 846.677,684.527C845.715,691.216 843.182,689.147 836.501,689.17C660.599,689.759 660.701,690.012 645.536,688.16C538.033,675.031 524.843,577.357 524.378,576.613C521.842,572.557 498.552,653.744 410.345,682.037C374.363,693.578 265.353,687.939 254.474,685.617C159.756,665.397 158.385,578.869 159.942,563.528Z" style="fill:white;"/>
        </g>
    </g>
</svg>
